# xmcd CD database file
#
# Track frame offsets:
#	150
#	50164
#	76026
#	94815
#	119983
#	148047
#
# Disc length: 2453 seconds
#
# Revision: 7
# Processed by: cddbd v1.5.2PL0 Copyright (c) Steve Scherf et al.
# Submitted via: CDex 1.60beta1-cs1
#
DISCID=54099306
DTITLE=Gerry Mulligan and Concert Jazz Band - Gerry Mulligan and Concert Jazz Band at The Village Vanguard  [1960]
DYEAR=1960
DGENRE=Jazz
TTITLE0=Blueport
TTITLE1=Body and Soul
TTITLE2=Black Nightgown
TTITLE3=Come Rain or Come Shine
TTITLE4=Lady Chatterley's Mother
TTITLE5=Let My People Be
EXTD=Gerry Mulligan bs, p - Don Ferrara, Clark Terry, Nich Travis tp - Bob Brookmeyer, Willie Dennis, Alan Ralph tb - Gene Quill as, cl - Bob Donovan as - Jim Reider ts - Gene Allen bs - Bill Crow b - Mel lewis dr - YEAR: 1960
EXTT0=
EXTT1=
EXTT2=
EXTT3=
EXTT4=
EXTT5=
PLAYORDER=
